<?xml version="1.0" standalone="no"?>
<!DOCTYPE svg PUBLIC "-//W3C//DTD SVG 20010904//EN"
 "http://www.w3.org/TR/2001/REC-SVG-20010904/DTD/svg10.dtd">
<svg version="1.0" xmlns="http://www.w3.org/2000/svg"
 width="161.000000pt" height="93.000000pt" viewBox="0 0 161.000000 93.000000"
 preserveAspectRatio="xMidYMid meet">

<g transform="translate(0.000000,93.000000) scale(0.100000,-0.100000)"
fill="#000000" stroke="none">
<path d="M1080 710 c0 -27 -2 -50 -4 -50 -2 0 -16 7 -32 15 -33 17 -70 11
-101 -18 -33 -30 -32 -99 2 -132 28 -29 79 -33 113 -9 20 14 22 14 22 0 0 -9
7 -16 15 -16 13 0 15 21 15 130 0 109 -2 130 -15 130 -11 0 -15 -12 -15 -50z
m-20 -70 c27 -27 25 -66 -5 -95 -29 -30 -55 -32 -86 -7 -28 23 -30 73 -4 102
23 26 69 26 95 0z"/>
<path d="M250 673 c-118 -55 -130 -66 -130 -113 0 -48 13 -58 138 -115 109
-49 144 -53 188 -21 26 20 6 43 -24 27 -36 -19 -75 -11 -172 37 -82 41 -95 50
-95 72 0 22 14 32 103 77 120 61 115 61 247 -6 93 -48 114 -73 80 -101 -8 -7
-15 -16 -15 -21 0 -13 34 -11 48 3 18 18 15 82 -6 100 -29 27 -213 108 -241
107 -14 0 -69 -21 -121 -46z"/>
<path d="M763 683 c-51 -10 -83 -102 -50 -144 29 -38 91 -50 136 -25 31 17 12
28 -26 14 -35 -13 -86 6 -91 35 -3 15 6 17 72 17 82 0 86 3 66 55 -8 21 -68
60 -82 54 -2 -1 -13 -4 -25 -6z m69 -40 c34 -31 23 -43 -42 -43 -45 0 -60 3
-60 14 0 41 67 61 102 29z"/>
<path d="M357 583 c-13 -13 -7 -44 11 -49 57 -19 119 -48 130 -62 6 -9 12 -42
12 -74 0 -45 3 -58 15 -58 12 0 15 15 15 73 0 84 -3 89 -87 131 -28 14 -54 30
-58 36 -7 11 -28 13 -38 3z"/>
<path d="M706 451 c-4 -5 11 -58 33 -117 59 -166 83 -166 145 0 29 77 36 110
28 118 -22 22 -41 -2 -68 -86 -16 -47 -31 -83 -35 -78 -3 4 -19 44 -34 90 -21
64 -31 82 -45 82 -10 0 -21 -4 -24 -9z"/>
<path d="M960 335 c0 -125 0 -126 23 -123 21 3 22 6 22 123 0 117 -1 120 -22
123 -23 3 -23 2 -23 -123z"/>
<path d="M1057 453 c-4 -3 -7 -12 -7 -20 0 -9 17 -13 60 -13 33 0 60 -2 60 -6
0 -3 -27 -36 -59 -74 -106 -123 -103 -132 40 -128 80 3 94 6 97 21 3 15 -5 17
-67 17 -39 0 -71 3 -71 8 1 4 30 41 65 82 66 76 77 103 49 114 -21 8 -159 8
-167 -1z"/>
<path d="M1284 447 c-2 -7 -3 -62 -2 -123 l3 -109 90 0 c73 0 90 3 90 15 0 12
-15 16 -67 18 l-68 3 0 34 0 35 60 0 c53 0 60 2 60 20 0 18 -7 20 -60 20 l-60
0 0 30 0 30 66 0 c57 0 65 2 62 18 -3 14 -16 17 -86 20 -62 2 -84 -1 -88 -11z"/>
<path d="M190 346 c0 -78 13 -92 119 -126 l70 -22 80 27 c45 15 84 31 87 37
15 24 -16 26 -79 3 -80 -29 -97 -30 -163 -9 -73 25 -84 38 -84 101 0 40 -4 53
-15 53 -12 0 -15 -14 -15 -64z"/>
</g>
</svg>
